<?xml version="1.0" encoding="UTF-8" standalone="no"?>
<!-- Created with Inkscape (http://www.inkscape.org/) -->

<svg
   xmlns:dc="http://purl.org/dc/elements/1.1/"
   xmlns:cc="http://creativecommons.org/ns#"
   xmlns:rdf="http://www.w3.org/1999/02/22-rdf-syntax-ns#"
   xmlns:svg="http://www.w3.org/2000/svg"
   xmlns="http://www.w3.org/2000/svg"
   xmlns:sodipodi="http://sodipodi.sourceforge.net/DTD/sodipodi-0.dtd"
   xmlns:inkscape="http://www.inkscape.org/namespaces/inkscape"
   version="1.1"
   id="svg2"
   xml:space="preserve"
   width="516.30133"
   height="611.91199"
   viewBox="0 0 516.30133 611.91199"
   sodipodi:docname="pdf.svg"
   inkscape:version="0.92.3 (2405546, 2018-03-11)"><metadata
     id="metadata8"><rdf:RDF><cc:Work
         rdf:about=""><dc:format>image/svg+xml</dc:format><dc:type
           rdf:resource="http://purl.org/dc/dcmitype/StillImage" /><dc:title></dc:title></cc:Work></rdf:RDF></metadata><defs
     id="defs6"><clipPath
       clipPathUnits="userSpaceOnUse"
       id="clipPath18"><path
         d="M 0,458.934 H 387.226 V 0 H 0 Z"
         id="path16"
         inkscape:connector-curvature="0" /></clipPath></defs><sodipodi:namedview
     pagecolor="#ffffff"
     bordercolor="#666666"
     borderopacity="1"
     objecttolerance="10"
     gridtolerance="10"
     guidetolerance="10"
     inkscape:pageopacity="0"
     inkscape:pageshadow="2"
     inkscape:window-width="1280"
     inkscape:window-height="657"
     id="namedview4"
     showgrid="false"
     inkscape:zoom="0.38567638"
     inkscape:cx="258.15067"
     inkscape:cy="305.95599"
     inkscape:window-x="-8"
     inkscape:window-y="-8"
     inkscape:window-maximized="1"
     inkscape:current-layer="g10" /><g
     id="g10"
     inkscape:groupmode="layer"
     inkscape:label="Векторный смарт-объект"
     transform="matrix(1.3333333,0,0,-1.3333333,0,611.912)"><g
       id="g12"><g
         id="g14"
         clip-path="url(#clipPath18)"><g
           id="g20"
           transform="translate(91.8765,215.125)"><path
             d="M 0,0 H -12.997 V -27.787 H 0 c 7.661,0 13.894,6.232 13.894,13.893 C 13.894,-6.232 7.661,0 0,0"
             style="fill:#000000;fill-opacity:1;fill-rule:nonzero;stroke:none"
             id="path22"
             inkscape:connector-curvature="0" /></g><g
           id="g24"
           transform="translate(31.3721,53.123)"><path
             d="m 0,0 c 0,8.25 6.75,15 15,15 h 294.481 c 8.25,0 15,-6.75 15,-15 v -38.123 c 0,-8.25 -6.75,-15 -15,-15 H 15 c -8.25,0 -15,6.75 -15,15 z"
             style="fill:#000000;fill-opacity:1;fill-rule:nonzero;stroke:none"
             id="path26"
             inkscape:connector-curvature="0" /></g><g
           id="g28"
           transform="translate(355.853,336.3711)"><path
             d="m 0,0 c 0,8.25 -6.75,15 -15,15 h -77.563 c -8.25,0 -15,6.75 -15,15 v 77.563 c 0,8.25 -6.75,15 -15,15 h -186.918 c -8.25,0 -15,-6.75 -15,-15 V -23.781 c 0,-8.25 6.75,-15 15,-15 H -15 c 8.25,0 15,6.75 15,15 z"
             style="fill:#000000;fill-opacity:1;fill-rule:nonzero;stroke:none"
             id="path30"
             inkscape:connector-curvature="0" /></g><g
           id="g32"
           transform="translate(275.1812,439.918)"><path
             d="M 0,0 V -61.656 H 61.656 Z"
             style="fill:#000000;fill-opacity:1;fill-rule:nonzero;stroke:none"
             id="path34"
             inkscape:connector-curvature="0" /></g><g
           id="g36"
           transform="translate(186.4419,215.125)"><path
             d="m 0,0 v -68.123 c 14.829,0 26.891,12.062 26.891,26.891 v 14.341 C 26.891,-12.063 14.829,0 0,0"
             style="fill:#000000;fill-opacity:1;fill-rule:nonzero;stroke:none"
             id="path38"
             inkscape:connector-curvature="0" /></g><g
           id="g40"
           transform="translate(336.1333,215.125)"><path
             d="m 0,0 h -40.336 v -30.924 h 26.891 v -26.89 h -26.891 v -37.2 H -67.227 V 26.891 l 67.227,0 z m -95.91,-41.232 c 0,-29.657 -24.125,-53.782 -53.781,-53.782 h -26.891 V 26.891 h 26.891 c 29.656,0 53.781,-24.124 53.781,-53.782 z m -148.347,-13.446 h -12.997 v -40.336 h -26.891 V 26.891 h 39.888 c 22.489,0 40.784,-18.295 40.784,-40.785 0,-22.489 -18.295,-40.784 -40.784,-40.784 m -91.876,-65.433 H 51.093 V 55.575 h -387.226 z"
             style="fill:#000000;fill-opacity:1;fill-rule:nonzero;stroke:none"
             id="path42"
             inkscape:connector-curvature="0" /></g></g></g></g></svg>