<?xml version="1.0" encoding="iso-8859-1"?>
<!-- Generator: Adobe Illustrator 19.0.0, SVG Export Plug-In . SVG Version: 6.00 Build 0)  -->
<svg version="1.1" id="Capa_1" xmlns="http://www.w3.org/2000/svg" xmlns:xlink="http://www.w3.org/1999/xlink" x="0px" y="0px"
	 viewBox="0 0 512 512" style="enable-background:new 0 0 512 512;" xml:space="preserve">
<g>
	<g>
		<g>
			<path d="M454,132c-31.981,0-58,26.019-58,58v264c0,31.981,26.019,58,58,58c31.981,0,58-26.019,58-58V190
				C512,158.019,485.981,132,454,132z M472,454c0,9.925-8.075,18-18,18s-18-8.075-18-18V190c0-9.925,8.075-18,18-18s18,8.075,18,18
				V454z"/>
			<path d="M296.123,294.35c-6.046-9.245-18.439-11.836-27.685-5.793c-9.245,6.046-11.838,18.441-5.793,27.686l1.436,2.196
				c-32.96-12.328-59.093-38.752-71.027-71.901l3.551,2.224c9.36,5.862,21.702,3.025,27.565-6.337
				c5.862-9.361,3.025-21.703-6.337-27.565l-41.219-25.811c-9.244-5.785-21.7-3.022-27.565,6.337l-25.81,41.219
				c-5.862,9.361-3.025,21.703,6.337,27.565c8.48,5.31,19.494,3.512,25.865-4.018c16.265,45.084,52.235,80.823,97.464,96.78
				c-8.048,6.344-10.062,17.891-4.347,26.631c6.009,9.188,18.386,11.874,27.685,5.792l40.703-26.617
				c9.301-6.073,11.752-18.569,5.794-27.685L296.123,294.35z"/>
			<path d="M322,0H58C26.019,0,0,26.019,0,58s26.019,58,58,58h264c31.981,0,58-26.019,58-58S353.981,0,322,0z M322,76H58
				c-9.925,0-18-8.075-18-18s8.075-18,18-18h264c9.925,0,18,8.075,18,18S331.925,76,322,76z"/>
		</g>
	</g>
</g>
<g>
</g>
<g>
</g>
<g>
</g>
<g>
</g>
<g>
</g>
<g>
</g>
<g>
</g>
<g>
</g>
<g>
</g>
<g>
</g>
<g>
</g>
<g>
</g>
<g>
</g>
<g>
</g>
<g>
</g>
</svg>
