<?xml version="1.0" encoding="iso-8859-1"?>
<!-- Generator: Adobe Illustrator 19.0.0, SVG Export Plug-In . SVG Version: 6.00 Build 0)  -->
<svg version="1.1" id="Layer_1" xmlns="http://www.w3.org/2000/svg" xmlns:xlink="http://www.w3.org/1999/xlink" x="0px" y="0px"
	 viewBox="0 0 512 512" style="enable-background:new 0 0 512 512;" xml:space="preserve">
<g>
	<g>
		<path d="M423.612,155.881c-1.602-17.097-16.035-30.525-33.545-30.525h-69.1c6.085-10.763,9.575-23.177,9.575-36.396
			c0-40.922-33.293-74.215-74.215-74.215c-40.922,0-74.215,33.293-74.215,74.215c0,13.22,3.492,25.634,9.575,36.396h-71.99
			c-17.537,0-31.988,13.467-33.551,30.603L0,460.972v2.592c0,18.578,15.114,33.692,33.692,33.692h444.615
			c18.578,0,33.692-15.114,33.692-33.692v-2.658L423.612,155.881z M256.326,52.18c20.28,0,36.779,16.499,36.779,36.779
			c0,18.49-13.715,33.83-31.506,36.396h-10.548c-17.789-2.567-31.505-17.907-31.505-36.396
			C219.546,68.679,236.045,52.18,256.326,52.18z M39.225,459.821l83.889-297.028h125.635c2.492,0.253,5.02,0.384,7.577,0.384
			c2.557,0,5.085-0.13,7.577-0.384h122.736l86.071,297.028H39.225z"/>
	</g>
</g>
<g>
	<g>
		<path d="M254.742,374.245l-46.554-70.896l38.224-47.834c1.495-1.922,1.708-3.843,1.708-5.338c0-7.045-8.968-14.307-16.015-14.307
			c-2.99,0-5.552,1.067-7.688,4.057l-46.125,62.782v-58.298c0-5.98-7.047-8.542-13.88-8.542c-7.047,0-13.881,2.562-13.881,8.542
			v138.802c0,5.766,6.833,8.756,13.881,8.756c6.833,0,13.88-2.99,13.88-8.756v-41.855l11.531-14.52l40.146,60.859
			c2.35,3.845,5.98,5.338,9.61,5.338c8.114,0,16.657-7.047,16.657-13.88C256.237,377.449,255.81,375.74,254.742,374.245z"/>
	</g>
</g>
<g>
	<g>
		<path d="M355.108,309.971h-36.303c-5.552,0-8.542,5.552-8.542,10.891c0,5.552,2.99,10.891,8.542,10.891h17.297v12.6
			c0,16.656-8.542,24.558-22.422,24.558c-14.093,0-22.208-7.901-22.208-24.558v-59.579c-0.003-16.659,8.112-24.56,22.42-24.56
			c18.15,0,21.568,11.105,22.208,21.141c0.213,6.62,6.406,8.755,13.881,8.755c9.182,0,13.88-2.563,13.88-13.239
			c0-25.625-21.568-41-51.036-41c-27.12,0-49.115,13.239-49.115,48.901v59.579c0,35.661,21.781,48.901,49.969,48.901
			c28.188,0,50.183-13.239,50.183-48.901V318.94C363.863,314.242,360.659,309.971,355.108,309.971z"/>
	</g>
</g>
<g>
</g>
<g>
</g>
<g>
</g>
<g>
</g>
<g>
</g>
<g>
</g>
<g>
</g>
<g>
</g>
<g>
</g>
<g>
</g>
<g>
</g>
<g>
</g>
<g>
</g>
<g>
</g>
<g>
</g>
</svg>
