<?xml version="1.0" encoding="iso-8859-1"?>
<!-- Generator: Adobe Illustrator 19.0.0, SVG Export Plug-In . SVG Version: 6.00 Build 0)  -->
<svg version="1.1" id="Capa_1" xmlns="http://www.w3.org/2000/svg" xmlns:xlink="http://www.w3.org/1999/xlink" x="0px" y="0px"
	 viewBox="0 0 512 512" style="enable-background:new 0 0 512 512;" xml:space="preserve">
<g>
	<g>
		<g>
			<path d="M368.941,297.655L296.238,256l72.702-41.655c9.585-5.491,12.905-17.715,7.415-27.302
				c-5.49-9.587-17.714-12.907-27.295-7.415L276,221.487v-83.514c0-11.049-8.954-20.005-20-20.005s-20,8.956-20,20.005v83.514
				l-73.06-41.859c-9.585-5.493-21.805-2.172-27.295,7.415c-5.49,9.587-2.17,21.81,7.414,27.302L215.762,256l-72.702,41.655
				c-9.585,5.492-12.904,17.715-7.414,27.302c5.49,9.586,17.709,12.907,27.295,7.415L236,290.513v83.514
				c0,11.049,8.954,20.005,20,20.005c11.046,0,20-8.956,20-20.005v-83.514l73.06,41.859c9.583,5.492,21.805,2.172,27.295-7.415
				C381.845,315.37,378.526,303.147,368.941,297.655z"/>
			<path d="M438.717,87.855L310.618,14.474c-33.688-19.298-75.546-19.299-109.236,0l-128.1,73.381
				C39.183,107.389,18,143.941,18,183.246v145.508c0,39.305,21.183,75.857,55.283,95.391l128.1,73.381
				c33.69,19.299,75.545,19.299,109.236,0l128.099-73.381C472.816,404.611,494,368.06,494,328.754V183.246
				C494,143.94,472.816,107.388,438.717,87.855z M454,328.754c0,25-13.474,48.248-35.162,60.672l-128.099,73.381
				c-21.427,12.275-48.05,12.276-69.478,0l-128.1-73.381C71.473,377.002,58,353.753,58,328.754V183.246
				c0-25,13.473-48.248,35.162-60.672l128.1-73.381c21.426-12.274,48.05-12.276,69.478,0l128.099,73.381
				C440.526,134.998,454,158.246,454,183.246V328.754z"/>
		</g>
	</g>
</g>
<g>
</g>
<g>
</g>
<g>
</g>
<g>
</g>
<g>
</g>
<g>
</g>
<g>
</g>
<g>
</g>
<g>
</g>
<g>
</g>
<g>
</g>
<g>
</g>
<g>
</g>
<g>
</g>
<g>
</g>
</svg>
