<svg id="Layer_1" enable-background="new 0 0 511.939 511.939" height="512" viewBox="0 0 511.939 511.939" width="512" xmlns="http://www.w3.org/2000/svg"><path d="m422.32 236.518h-34.011l-20.923-59.974h-65.032v-58.271h24.241c5.9 14.181 19.897 24.179 36.189 24.179 21.604 0 39.18-17.575 39.18-39.179s-17.576-39.18-39.18-39.18c-16.292 0-30.289 9.999-36.189 24.18h-24.241v-88.273h-92.768v176.544h-65.032l-20.923 59.974h-19.011v-73.79c0-11.181 9.096-20.276 20.275-20.276h35.941v-30h-35.941c-27.722 0-50.275 22.554-50.275 50.276v75.3c-34.163 6.968-59.947 37.247-59.947 73.437v73.17c0 41.326 33.621 74.947 74.947 74.947h8.743v52.357h99.975v-52.357h115.266v52.357h99.975v-52.357h8.743c41.326 0 74.947-33.621 74.947-74.947v-73.17c-.001-41.326-33.623-74.947-74.949-74.947zm-59.537-142.425c5.062 0 9.18 4.118 9.18 9.18s-4.118 9.179-9.18 9.179-9.18-4.117-9.18-9.179 4.119-9.18 9.18-9.18zm-234.421 335.489v-163.064h255.215v163.064zm111.224-399.582h32.768v146.544h-32.768zm-73.726 176.544h180.219l10.456 29.974h-201.131zm-121.188 178.091v-73.17c0-24.784 20.163-44.947 44.947-44.947h8.743v163.064h-8.743c-24.784 0-44.947-20.163-44.947-44.947zm123.665 97.304h-39.975v-22.357h39.975zm215.24 0h-39.975v-22.357h39.975zm83.691-97.304c0 24.784-20.163 44.947-44.947 44.947h-8.743v-163.064h8.743c24.784 0 44.947 20.163 44.947 44.947z"/></svg>