<?xml version="1.0" encoding="iso-8859-1"?>
<!-- Generator: Adobe Illustrator 19.0.0, SVG Export Plug-In . SVG Version: 6.00 Build 0)  -->
<svg version="1.1" id="Capa_1" xmlns="http://www.w3.org/2000/svg" xmlns:xlink="http://www.w3.org/1999/xlink" x="0px" y="0px"
	 viewBox="0 0 512 512" style="enable-background:new 0 0 512 512;" xml:space="preserve">
<g>
	<g>
		<g>
			<path d="M194.56,81.92H71.68c-5.652,0-10.24,4.588-10.24,10.24v409.6c0,5.652,4.588,10.24,10.24,10.24H358.4
				c5.652,0,10.24-4.588,10.24-10.24V256C368.64,208.814,241.746,81.92,194.56,81.92z M348.16,256v235.52H81.92V102.4h112.64
				c2.867,0,6.41,1.003,10.24,2.396V235.52c0,5.652,4.588,10.24,10.24,10.24h130.724C347.177,249.59,348.16,253.112,348.16,256z
				 M225.28,225.28V115.671c36.045,23.532,86.077,73.564,109.609,109.609H225.28z"/>
			<path d="M276.48,0H153.6c-5.652,0-10.24,4.588-10.24,10.24s4.588,10.24,10.24,10.24h122.88c35.881,0,153.6,117.719,153.6,153.6
				v245.76c0,5.652,4.588,10.24,10.24,10.24s10.24-4.588,10.24-10.24V174.08C450.56,126.894,323.666,0,276.48,0z"/>
			<path d="M235.52,40.96H112.64c-5.653,0-10.24,4.588-10.24,10.24s4.587,10.24,10.24,10.24h122.88
				c35.881,0,153.6,117.719,153.6,153.6V460.8c0,5.652,4.588,10.24,10.24,10.24s10.24-4.588,10.24-10.24V215.04
				C409.6,167.854,282.706,40.96,235.52,40.96z"/>
		</g>
	</g>
</g>
<g>
</g>
<g>
</g>
<g>
</g>
<g>
</g>
<g>
</g>
<g>
</g>
<g>
</g>
<g>
</g>
<g>
</g>
<g>
</g>
<g>
</g>
<g>
</g>
<g>
</g>
<g>
</g>
<g>
</g>
</svg>
