<?xml version="1.0" encoding="UTF-8" standalone="no"?>
<!-- Created with Inkscape (http://www.inkscape.org/) -->

<svg
   xmlns:dc="http://purl.org/dc/elements/1.1/"
   xmlns:cc="http://creativecommons.org/ns#"
   xmlns:rdf="http://www.w3.org/1999/02/22-rdf-syntax-ns#"
   xmlns:svg="http://www.w3.org/2000/svg"
   xmlns="http://www.w3.org/2000/svg"
   xmlns:sodipodi="http://sodipodi.sourceforge.net/DTD/sodipodi-0.dtd"
   xmlns:inkscape="http://www.inkscape.org/namespaces/inkscape"
   version="1.1"
   id="svg2"
   xml:space="preserve"
   width="816"
   height="816"
   viewBox="0 0 816 816"
   sodipodi:docname="link.svg"
   inkscape:version="0.92.3 (2405546, 2018-03-11)"><metadata
     id="metadata8"><rdf:RDF><cc:Work
         rdf:about=""><dc:format>image/svg+xml</dc:format><dc:type
           rdf:resource="http://purl.org/dc/dcmitype/StillImage" /><dc:title></dc:title></cc:Work></rdf:RDF></metadata><defs
     id="defs6"><clipPath
       clipPathUnits="userSpaceOnUse"
       id="clipPath18"><path
         d="M 0,612 H 612 V 0 H 0 Z"
         id="path16"
         inkscape:connector-curvature="0" /></clipPath></defs><sodipodi:namedview
     pagecolor="#ffffff"
     bordercolor="#666666"
     borderopacity="1"
     objecttolerance="10"
     gridtolerance="10"
     guidetolerance="10"
     inkscape:pageopacity="0"
     inkscape:pageshadow="2"
     inkscape:window-width="1280"
     inkscape:window-height="657"
     id="namedview4"
     showgrid="false"
     inkscape:zoom="0.28921569"
     inkscape:cx="408"
     inkscape:cy="408"
     inkscape:window-x="-8"
     inkscape:window-y="-8"
     inkscape:window-maximized="1"
     inkscape:current-layer="g10" /><g
     id="g10"
     inkscape:groupmode="layer"
     inkscape:label="Векторный смарт-объект1"
     transform="matrix(1.3333333,0,0,-1.3333333,0,816)"><g
       id="g12"><g
         id="g14"
         clip-path="url(#clipPath18)"><g
           id="g20"
           transform="translate(368.5879,253.2715)"><path
             d="m 0,0 -54.608,-54.607 c -2.324,-2.324 -4.765,-4.485 -7.306,-6.49 0.775,5.058 1.172,10.189 1.172,15.368 0,13.043 -2.471,25.76 -7.343,37.799 -1.858,4.592 -4.042,9.006 -6.528,13.232 l 34.656,34.659 c 9.793,9.791 9.793,25.723 0,35.516 -4.745,4.745 -11.051,7.356 -17.76,7.356 -6.71,0 -13.016,-2.612 -17.761,-7.356 L -143.405,7.549 c -9.791,-9.793 -9.791,-25.727 0,-35.521 1.203,-1.202 1.838,-2.737 1.838,-4.438 0,-1.7 -0.635,-3.237 -1.838,-4.441 l -22.029,-22.026 c -1.582,1.357 -3.121,2.778 -4.609,4.27 -31.825,31.825 -31.825,83.607 0,115.434 l 54.607,54.611 c 31.826,31.823 83.608,31.826 115.435,0 C 31.824,83.611 31.824,31.826 0,0 m -103.447,-103.446 -54.608,-54.612 c -15.913,-15.912 -36.815,-23.867 -57.718,-23.867 -20.903,0 -41.803,7.955 -57.716,23.867 -31.826,31.827 -31.826,83.612 0,115.435 l 54.608,54.61 c 2.333,2.333 4.774,4.488 7.304,6.478 -0.775,-5.053 -1.169,-10.178 -1.169,-15.356 0,-13.044 2.471,-25.76 7.343,-37.798 1.86,-4.59 4.042,-9.006 6.529,-13.231 l -34.657,-34.656 c -9.791,-9.793 -9.791,-25.727 0,-35.52 9.793,-9.791 25.726,-9.791 35.52,0 l 13.317,13.318 c 0,0 0,0.002 0.002,0.002 l 54.609,54.608 c 4.744,4.744 7.356,11.049 7.356,17.76 0,6.707 -2.612,13.014 -7.356,17.759 -2.448,2.448 -2.448,6.433 0,8.881 l 22.103,22.104 c 1.5,-1.379 3.01,-2.82 4.534,-4.348 31.824,-31.826 31.824,-83.609 -0.001,-115.434 M 13.912,205.729 h -306 c -42.246,0 -76.5,-34.253 -76.5,-76.5 v -306 c 0,-42.248 34.254,-76.5 76.5,-76.5 h 306 c 42.246,0 76.5,34.252 76.5,76.5 v 306 c 0,42.247 -34.254,76.5 -76.5,76.5"
             style="fill:#000000;fill-opacity:1;fill-rule:nonzero;stroke:none"
             id="path22"
             inkscape:connector-curvature="0" /></g><g
           id="g24"
           transform="translate(535.5,612)"><path
             d="m 0,0 h -306 c -42.246,0 -76.5,-34.253 -76.5,-76.5 v -38.25 h 248.625 c 42.246,0 95.625,-53.378 95.625,-95.625 V -459 H 0 c 42.246,0 76.5,34.253 76.5,76.5 v 306 C 76.5,-34.253 42.246,0 0,0"
             style="fill:#000000;fill-opacity:1;fill-rule:nonzero;stroke:none"
             id="path26"
             inkscape:connector-curvature="0" /></g></g></g></g></svg>