<?xml version="1.0" encoding="iso-8859-1"?>
<!-- Generator: Adobe Illustrator 19.0.0, SVG Export Plug-In . SVG Version: 6.00 Build 0)  -->
<svg version="1.1" id="Capa_1" xmlns="http://www.w3.org/2000/svg" xmlns:xlink="http://www.w3.org/1999/xlink" x="0px" y="0px"
	 viewBox="0 0 512.136 512.136" style="enable-background:new 0 0 512.136 512.136;" xml:space="preserve">
<g>
	<g>
		<path d="M307.336,17.277c-17.067-6.4-34.133,14.933-25.6,29.867c57.6,102.4,21.333,232.533-81.067,290.133
			c-51.2,27.733-115.2,34.133-172.8,12.8c-17.067-6.4-34.133,14.933-25.6,29.867c55.467,96,166.4,147.2,275.2,125.867l-8.533-42.667
			c-14.933,4.267-27.733,6.4-42.667,6.4c-57.6,0-113.067-23.467-153.6-66.133c8.533,2.133,17.067,2.133,25.6,2.133
			c140.8,0,256-115.2,256-256c0-23.467-4.267-49.067-10.667-70.4c74.667,49.067,110.933,140.8,89.6,228.267l40.533,10.667
			C503.603,190.077,433.203,59.943,307.336,17.277z"/>
	</g>
</g>
<g>
	<g>
		<path d="M190.003,47.143C179.336,13.01,143.07-6.19,111.07,4.477c-19.2,6.4-34.133,21.333-42.667,40.533
			c-36.267-2.133-64,25.6-66.133,61.867c-2.133,36.267,27.733,64,61.867,66.133h106.667c36.267,0,64-27.733,64-64
			C234.803,81.277,215.603,55.677,190.003,47.143z M170.803,130.343H64.136c-12.8,0-21.333-8.533-21.333-21.333
			S53.47,87.677,64.136,87.677c4.267,0,8.533,2.133,10.667,2.133c6.4,4.267,14.933,4.267,23.467,0
			c8.533-6.4,8.533-14.933,8.533-23.467c0-12.8,8.533-21.333,21.333-21.333s21.333,8.533,21.333,21.333
			c0,12.8,8.533,21.333,21.333,21.333s21.333,8.533,21.333,21.333S183.603,130.343,170.803,130.343z"/>
	</g>
</g>
<g>
	<g>
		<path d="M467.336,365.01c-10.667-34.133-46.933-53.333-78.933-42.667c-19.2,6.4-34.133,21.333-42.667,40.533
			c-36.267,0-64,27.733-66.133,61.867c0,36.267,27.733,64,61.867,66.133h106.667c36.267,0,64-27.733,64-64
			C512.136,399.143,492.936,373.543,467.336,365.01z M448.136,448.21H341.47c-12.8,0-21.333-8.533-21.333-21.333
			s8.533-21.333,21.333-21.333c4.267,0,8.533,2.133,10.667,2.133c6.4,4.267,14.933,4.267,23.467,0
			c8.533-6.4,8.533-14.933,8.533-23.467c0-12.8,8.533-21.333,21.333-21.333c12.8,0,21.333,8.533,21.333,21.333
			c0,12.8,8.533,21.333,21.333,21.333c12.8,0,21.333,8.533,21.333,21.333S460.936,448.21,448.136,448.21z"/>
	</g>
</g>
<g>
</g>
<g>
</g>
<g>
</g>
<g>
</g>
<g>
</g>
<g>
</g>
<g>
</g>
<g>
</g>
<g>
</g>
<g>
</g>
<g>
</g>
<g>
</g>
<g>
</g>
<g>
</g>
<g>
</g>
</svg>
